<svg aria-hidden="true" style="position: absolute; width: 0; height: 0; overflow: hidden;" version="1.1" xmlns="http://www.w3.org/2000/svg" xmlns:xlink="http://www.w3.org/1999/xlink">
<defs>
<symbol id="icon-checkbox-1" viewBox="0 0 33 32">
<path fill="#f90" style="fill: var(--color1, #f90)" d="M12.667 1.333h6.726c6.259 0 11.333 5.074 11.333 11.333v6.667c0 6.259-5.074 11.333-11.333 11.333h-6.726c-6.259 0-11.333-5.074-11.333-11.333v-6.667c0-6.259 5.074-11.333 11.333-11.333z"></path>
<path fill="none" stroke="#fff" style="stroke: var(--color2, #fff)" stroke-linejoin="miter" stroke-linecap="butt" stroke-miterlimit="4" stroke-width="2.6667" d="M12.667 1.333h6.726c6.259 0 11.333 5.074 11.333 11.333v6.667c0 6.259-5.074 11.333-11.333 11.333h-6.726c-6.259 0-11.333-5.074-11.333-11.333v-6.667c0-6.259 5.074-11.333 11.333-11.333z"></path>
<path fill="none" stroke="#f90" style="stroke: var(--color1, #f90)" stroke-linejoin="miter" stroke-linecap="butt" stroke-miterlimit="4" stroke-width="2.6667" d="M12.667 1.333h6.726c6.259 0 11.333 5.074 11.333 11.333v6.667c0 6.259-5.074 11.333-11.333 11.333h-6.726c-6.259 0-11.333-5.074-11.333-11.333v-6.667c0-6.259 5.074-11.333 11.333-11.333z"></path>
<path fill="#fff" style="fill: var(--color2, #fff)" d="M23.601 11.19c-0.286-0.292-0.75-0.292-1.036 0l-8.779 8.949-3.375-3.44c-0.286-0.292-0.75-0.292-1.036 0s-0.286 0.765 0 1.056l3.893 3.968c0.286 0.292 0.75 0.291 1.036 0l9.297-9.478c0.286-0.292 0.286-0.765 0-1.056z"></path>
</symbol>
<symbol id="icon-checkbox-2" viewBox="0 0 33 32">
<path fill="#f03e3d" style="fill: var(--color3, #f03e3d)" d="M12.667 1.333h6.726c6.259 0 11.333 5.074 11.333 11.333v6.667c0 6.259-5.074 11.333-11.333 11.333h-6.726c-6.259 0-11.333-5.074-11.333-11.333v-6.667c0-6.259 5.074-11.333 11.333-11.333z"></path>
<path fill="none" stroke="#fff" style="stroke: var(--color2, #fff)" stroke-linejoin="miter" stroke-linecap="butt" stroke-miterlimit="4" stroke-width="2.6667" d="M12.667 1.333h6.726c6.259 0 11.333 5.074 11.333 11.333v6.667c0 6.259-5.074 11.333-11.333 11.333h-6.726c-6.259 0-11.333-5.074-11.333-11.333v-6.667c0-6.259 5.074-11.333 11.333-11.333z"></path>
<path fill="none" stroke="#f03e3d" style="stroke: var(--color3, #f03e3d)" stroke-linejoin="miter" stroke-linecap="butt" stroke-miterlimit="4" stroke-width="2.6667" d="M12.667 1.333h6.726c6.259 0 11.333 5.074 11.333 11.333v6.667c0 6.259-5.074 11.333-11.333 11.333h-6.726c-6.259 0-11.333-5.074-11.333-11.333v-6.667c0-6.259 5.074-11.333 11.333-11.333z"></path>
<path fill="#fff" style="fill: var(--color2, #fff)" d="M23.601 11.19c-0.286-0.292-0.75-0.292-1.036 0l-8.779 8.949-3.375-3.44c-0.286-0.292-0.75-0.292-1.036 0s-0.286 0.765 0 1.056l3.893 3.968c0.286 0.292 0.75 0.291 1.036 0l9.297-9.478c0.286-0.292 0.286-0.765 0-1.056z"></path>
</symbol>
<symbol id="icon-checkbox-3" viewBox="0 0 33 32">
<path fill="#4d8dff" style="fill: var(--color4, #4d8dff)" d="M12.667 1.333h6.726c6.259 0 11.333 5.074 11.333 11.333v6.667c0 6.259-5.074 11.333-11.333 11.333h-6.726c-6.259 0-11.333-5.074-11.333-11.333v-6.667c0-6.259 5.074-11.333 11.333-11.333z"></path>
<path fill="none" stroke="#fff" style="stroke: var(--color2, #fff)" stroke-linejoin="miter" stroke-linecap="butt" stroke-miterlimit="4" stroke-width="2.6667" d="M12.667 1.333h6.726c6.259 0 11.333 5.074 11.333 11.333v6.667c0 6.259-5.074 11.333-11.333 11.333h-6.726c-6.259 0-11.333-5.074-11.333-11.333v-6.667c0-6.259 5.074-11.333 11.333-11.333z"></path>
<path fill="none" stroke="#4d8dff" style="stroke: var(--color4, #4d8dff)" stroke-linejoin="miter" stroke-linecap="butt" stroke-miterlimit="4" stroke-width="2.6667" d="M12.667 1.333h6.726c6.259 0 11.333 5.074 11.333 11.333v6.667c0 6.259-5.074 11.333-11.333 11.333h-6.726c-6.259 0-11.333-5.074-11.333-11.333v-6.667c0-6.259 5.074-11.333 11.333-11.333z"></path>
<path fill="#fff" style="fill: var(--color2, #fff)" d="M23.601 11.19c-0.286-0.292-0.75-0.292-1.036 0l-8.779 8.949-3.375-3.44c-0.286-0.292-0.75-0.292-1.036 0s-0.286 0.765 0 1.056l3.893 3.968c0.286 0.292 0.75 0.291 1.036 0l9.297-9.478c0.286-0.292 0.286-0.765 0-1.056z"></path>
</symbol>
<symbol id="icon-triangle" viewBox="0 0 28 32">
<path fill="#02897a" style="fill: var(--color1, #02897a)" d="M26.088 12.19c2.441 1.354 2.441 4.864 0 6.218l-21.155 11.739c-2.37 1.315-5.281-0.399-5.281-3.109v-23.477c0-2.71 2.911-4.424 5.281-3.109l21.155 11.739z"></path>
</symbol>
<symbol id="icon-star" viewBox="0 0 34 32">
<path fill="#f3cd03" style="fill: var(--color1, #f3cd03)" d="M32.404 11.487c-0.102-0.296-0.29-0.556-0.541-0.749s-0.553-0.308-0.869-0.333l-9.261-0.725-4.008-8.736c-0.128-0.281-0.335-0.52-0.598-0.688s-0.569-0.257-0.882-0.257c-0.313-0-0.619 0.089-0.882 0.256s-0.471 0.406-0.599 0.687l-4.008 8.737-9.261 0.725c-0.311 0.024-0.609 0.136-0.857 0.323s-0.437 0.439-0.543 0.728c-0.106 0.289-0.125 0.602-0.055 0.902s0.226 0.573 0.449 0.787l6.844 6.57-2.421 10.321c-0.074 0.312-0.050 0.639 0.068 0.938s0.324 0.556 0.592 0.739c0.268 0.182 0.585 0.281 0.911 0.283s0.645-0.092 0.915-0.27l8.845-5.807 8.845 5.807c0.277 0.181 0.603 0.274 0.935 0.267s0.654-0.114 0.922-0.307c0.268-0.193 0.47-0.462 0.579-0.771s0.118-0.644 0.028-0.958l-2.971-10.238 7.369-6.53c0.482-0.429 0.66-1.097 0.452-1.704z"></path>
</symbol>
<symbol id="icon-star-filled" viewBox="0 0 34 32">
<path fill="#f3cd03" style="fill: var(--color1, #f3cd03)" d="M7.336 19.715l-2.421 10.321c-0.075 0.313-0.052 0.64 0.065 0.94s0.323 0.558 0.591 0.74c0.268 0.183 0.586 0.281 0.912 0.283s0.645-0.093 0.916-0.273l8.845-5.807 8.845 5.807c0.277 0.181 0.603 0.274 0.935 0.267s0.654-0.114 0.922-0.307c0.268-0.193 0.47-0.462 0.579-0.771s0.118-0.644 0.028-0.958l-2.971-10.238 7.369-6.53c0.236-0.209 0.404-0.482 0.485-0.785s0.069-0.622-0.033-0.918c-0.102-0.296-0.29-0.556-0.54-0.748s-0.553-0.308-0.869-0.332l-9.261-0.726-4.008-8.736c-0.128-0.281-0.336-0.52-0.598-0.688s-0.569-0.257-0.882-0.257c-0.313 0-0.619 0.089-0.882 0.257s-0.47 0.406-0.598 0.688l-4.008 8.736-9.261 0.725c-0.311 0.024-0.609 0.136-0.857 0.323s-0.437 0.439-0.543 0.728c-0.106 0.289-0.125 0.602-0.055 0.902s0.226 0.573 0.449 0.787l6.846 6.57zM11.971 12.795c0.29-0.023 0.568-0.121 0.806-0.286s0.426-0.39 0.545-0.651l2.923-6.368 2.923 6.368c0.119 0.261 0.308 0.486 0.545 0.651s0.516 0.264 0.806 0.286l6.452 0.504-5.314 4.709c-0.461 0.41-0.645 1.040-0.476 1.628l2.036 7.014-6.069-3.985c-0.266-0.176-0.58-0.27-0.901-0.27s-0.634 0.094-0.901 0.27l-6.342 4.164 1.706-7.272c0.063-0.267 0.054-0.546-0.024-0.81s-0.225-0.502-0.424-0.694l-4.935-4.738 6.644-0.521z"></path>
</symbol>
<symbol id="icon-mobile-screen" viewBox="0 0 21 32">
<path fill="#02897a" style="fill: var(--color1, #02897a)" d="M16.935 2.286h-13.299c-1.377 0-2.494 1.152-2.494 2.571v22.286c0 1.42 1.117 2.571 2.494 2.571h13.299c1.377 0 2.494-1.152 2.494-2.571v-22.286c0-1.42-1.117-2.571-2.494-2.571zM12.779 26.238c0 0.52-0.374 0.905-0.831 0.905h-3.371c-0.41 0-0.784-0.386-0.784-0.857s0.374-0.857 0.831-0.857h3.325c0.457 0 0.831 0.386 0.831 0.809zM16.104 22.857h-11.636v-17.143h11.636v17.143z"></path>
</symbol>
</defs>
</svg>
